Coordinates
version=1
nRows=13
nColumns=40
inDegrees=yes

Units are S.I. units (second, meters, Newtons, ...)
Angles are in degrees.

endheader
time	pelvis_tilt	pelvis_list	pelvis_rotation	pelvis_tx	pelvis_ty	pelvis_tz	hip_flexion_r	hip_adduction_r	hip_rotation_r	knee_angle_r	knee_angle_r_beta	ankle_angle_r	subtalar_angle_r	mtp_angle_r	hip_flexion_l	hip_adduction_l	hip_rotation_l	knee_angle_l	knee_angle_l_beta	ankle_angle_l	subtalar_angle_l	mtp_angle_l	lumbar_extension	lumbar_bending	lumbar_rotation	arm_flex_r	arm_add_r	arm_rot_r	elbow_flex_r	pro_sup_r	wrist_flex_r	wrist_dev_r	arm_flex_l	arm_add_l	arm_rot_l	elbow_flex_l	pro_sup_l	wrist_flex_l	wrist_dev_l
     36.55750000	     -2.13649831	     -5.33343306	      3.56837670	      0.93792460	      0.93437815	      0.49655622	      4.86373966	      5.66714485	    -19.20647644	     11.65758423	     11.65758423	     11.87090820	      4.27127811	     -3.73423333	     32.81986989	    -12.83232547	     -1.90901627	     45.77796882	     45.77796882	     11.25906324	    -17.67563420	     14.64928420	     -7.88715339	      6.92031858	      5.02258563	     25.99605201	    -16.74123701	     -6.45113627	     41.83120328	     46.04887596	      0.00000000	      0.00000000	      2.43723494	     -6.01365491	     -0.45768795	     23.73792879	     45.47685906	      0.00000000	      0.00000000
     36.56957143	     -2.19339569	     -5.13258302	      3.70698210	      0.93674771	      0.93421797	      0.49605735	      4.13984475	      5.56699391	    -19.21130862	     10.97533303	     10.97533303	     11.96245009	      4.52593057	     -3.93068967	     32.91082181	    -12.10038215	     -1.77536169	     42.06679694	     42.06679694	     10.92848170	    -17.51093527	     14.55926087	     -8.03594619	      6.68849014	      4.67090056	     27.77558726	    -16.59974292	     -6.53148310	     43.69435198	     45.98798579	      0.00000000	      0.00000000	      0.84381125	     -6.04316755	     -0.05604204	     23.15496342	     45.36869840	      0.00000000	      0.00000000
     36.58164286	     -2.36782032	     -5.16067951	      3.85133532	      0.93549124	      0.93355289	      0.49555319	      3.67383603	      5.65967621	    -19.34162533	     10.51733602	     10.51733602	     12.08853053	      4.79371594	     -4.26797610	     33.20232820	    -11.66376246	     -1.64715487	     38.49735432	     38.49735432	     10.57977985	    -16.75833228	     14.03087883	     -8.03615108	      6.73818291	      4.63600780	     29.33228478	    -16.83871511	     -6.64277265	     45.59023141	     45.92584854	      0.00000000	      0.00000000	     -0.68205022	     -5.94774214	      0.41888191	     22.92898809	     45.24260541	      0.00000000	      0.00000000
     36.59371429	     -2.58156290	     -5.23180338	      3.99563430	      0.93431428	      0.93268501	      0.49495385	      3.24351998	      5.77973423	    -19.57983130	     10.04958938	     10.04958938	     12.11670127	      5.20328125	     -4.96641369	     33.41873245	    -11.29393889	     -1.61411380	     34.83453572	     34.83453572	      9.54932393	    -15.80806133	     11.80620270	     -7.99994663	      6.82707201	      4.87542298	     30.20268659	    -17.38406067	     -6.74311736	     48.64802921	     45.80691938	      0.00000000	      0.00000000	     -2.33806148	     -6.01629228	      1.83175026	     23.51476633	     44.92791310	      0.00000000	      0.00000000
     36.60578571	     -2.79789461	     -5.26071131	      4.08218620	      0.93309100	      0.93185193	      0.49431741	      2.90318880	      5.84544948	    -19.54883428	      9.75690047	      9.75690047	     12.35929408	      5.25587024	     -5.07090654	     33.64363724	    -10.90388170	     -1.63776472	     31.47648472	     31.47648472	      9.46092084	    -14.36085946	     12.01547735	     -7.94267927	      6.82762710	      5.05266240	     31.75622944	    -17.69171028	     -6.90396523	     49.70090242	     45.78267509	      0.00000000	      0.00000000	     -3.60913009	     -5.90391494	      2.09727427	     23.09415668	     44.85728951	      0.00000000	      0.00000000
     36.61785714	     -3.01418879	     -5.35562852	      4.21811021	      0.93196711	      0.93094088	      0.49355852	      2.52389580	      5.98516515	    -19.61702235	      9.39611533	      9.39611533	     12.57998933	      5.42763417	     -5.16539733	     33.87143541	    -10.57147736	     -1.68235796	     28.34842837	     28.34842837	      9.32449774	    -12.71162977	     12.19815557	     -7.84865455	      6.90108152	      5.05992357	     33.26170613	    -17.85490313	     -7.07425540	     50.94718818	     45.75170943	      0.00000000	      0.00000000	     -4.86794320	     -5.74208880	      2.31787831	     22.75536527	     44.79351699	      0.00000000	      0.00000000
     36.62992857	     -3.24394865	     -5.61475805	      4.37471536	      0.93087012	      0.92978174	      0.49267470	      2.22881380	      6.27190681	    -19.72096386	      9.15823817	      9.15823817	     12.83375886	      5.55151640	     -5.27780964	     34.27664947	    -10.38916963	     -1.65635689	     25.76040110	     25.76040110	      9.13082952	    -11.18182309	     12.44878032	     -7.70155336	      7.22641220	      5.19547319	     34.79035166	    -18.29012139	     -7.29179507	     51.99964592	     45.73108216	      0.00000000	      0.00000000	     -6.08911245	     -5.57945199	      2.43084122	     22.43676592	     44.74971416	      0.00000000	      0.00000000
     36.64200000	     -3.21448339	     -5.61430610	      4.51834628	      0.93027855	      0.92919068	      0.49170224	      1.35643901	      6.34856012	    -20.06765752	      8.45858070	      8.45858070	     13.02959193	      6.39261680	     -5.38383972	     34.09304017	    -10.10522961	     -2.36105383	     23.17200513	     23.17200513	      8.62396702	     -9.13512450	     11.47533045	     -7.99444511	      7.19418940	      5.12402747	     35.16831805	    -18.27009330	     -7.95504474	     56.15128883	     45.60265920	      0.00000000	      0.00000000	     -7.73288484	     -5.79452903	      4.13984969	     23.37388809	     44.41312578	      0.00000000	      0.00000000
     36.65407143	     -3.36226073	     -5.69461667	      4.64297855	      0.92960472	      0.92828699	      0.49064603	      0.85311024	      6.47341448	    -20.10690079	      8.06752891	      8.06752891	     13.27134546	      6.57832077	     -5.39549382	     34.23861744	     -9.81893613	     -2.81040808	     21.23822100	     21.23822100	      8.39282407	     -7.70293680	     11.82480186	     -7.91350212	      7.24850414	      4.97574071	     36.49245152	    -18.21050306	     -8.12891197	     57.25026934	     45.57670644	      0.00000000	      0.00000000	     -8.87183680	     -5.68879440	      4.47218719	     22.91764979	     44.34161691	      0.00000000	      0.00000000
     36.66614286	     -3.46978593	     -5.81020748	      4.76633254	      0.92912373	      0.92735523	      0.48950349	      0.27506435	      6.63522879	    -20.21349845	      7.64070572	      7.64070572	     13.53988833	      6.89029239	     -5.34591217	     34.39599198	     -9.61931631	     -3.45702906	     19.90667233	     19.90667233	      8.21344201	     -6.38555712	     12.06538792	     -7.87277740	      7.36931494	      4.78237583	     37.64155419	    -18.06289744	     -8.39440936	     58.74548685	     45.53931638	      0.00000000	      0.00000000	     -9.97305311	     -5.57480478	      4.88393781	     22.70792753	     44.25858230	      0.00000000	      0.00000000
     36.67821429	     -3.59184920	     -5.85663906	      4.85199612	      0.92882173	      0.92640127	      0.48824752	     -0.25251201	      6.69498294	    -20.24761167	      7.32969144	      7.32969144	     13.86680519	      7.13359165	     -5.28154356	     34.51657158	     -9.35881024	     -4.08062792	     19.05164423	     19.05164423	      7.96361816	     -5.55589143	     12.26994409	     -7.78981445	      7.38989201	      4.67866333	     38.62535228	    -18.00024187	     -8.67629741	     60.13093512	     45.50637907	      0.00000000	      0.00000000	    -11.03629459	     -5.49582848	      5.19611253	     22.51897553	     44.19232632	      0.00000000	      0.00000000
     36.69028571	     -3.78967619	     -5.93906100	      4.88111321	      0.92865858	      0.92519464	      0.48695416	     -0.60978312	      6.74901272	    -20.20344047	      7.20589996	      7.20589996	     14.22171605	      7.20227132	     -5.33303584	     34.76744138	     -9.13606441	     -4.51401585	     18.82039694	     18.82039694	      7.69998960	     -5.48020511	     12.39494720	     -7.55324857	      7.40586377	      4.86241046	     39.55331176	    -18.28916335	     -8.85412742	     60.71648926	     45.49783114	      0.00000000	      0.00000000	    -11.84382829	     -5.41067170	      5.25310910	     22.27336943	     44.16903095	      0.00000000	      0.00000000
     36.70235714	     -3.84319505	     -5.94701607	      4.89560460	      0.92888028	      0.92424699	      0.48560983	     -1.20208106	      6.73382132	    -20.31983503	      7.03248201	      7.03248201	     14.88858755	      7.69723251	     -4.48455564	     34.65965163	     -8.94055169	     -5.20405149	     18.79209500	     18.79209500	      7.26200016	     -5.29100077	     11.83781346	     -7.57847481	      7.38708846	      4.95615457	     39.54211521	    -18.11736676	     -9.92496093	     64.29054583	     45.41754733	      0.00000000	      0.00000000	    -12.85718469	     -5.53338887	      6.47653257	     22.89058398	     43.97617537	      0.00000000	      0.00000000
